<?xml version="1.0" encoding="UTF-8" standalone="no"?>
<!-- Created with Inkscape (http://www.inkscape.org/) -->

<svg
   width="179.19437mm"
   height="126.72711mm"
   viewBox="0 0 179.19437 126.72711"
   version="1.1"
   id="svg1"
   inkscape:export-filename="planevector.svg"
   inkscape:export-xdpi="42.523659"
   inkscape:export-ydpi="42.523659"
   xmlns:inkscape="http://www.inkscape.org/namespaces/inkscape"
   xmlns:sodipodi="http://sodipodi.sourceforge.net/DTD/sodipodi-0.dtd"
   xmlns="http://www.w3.org/2000/svg"
   xmlns:svg="http://www.w3.org/2000/svg">
  <sodipodi:namedview
     id="namedview1"
     pagecolor="#505050"
     bordercolor="#eeeeee"
     borderopacity="1"
     inkscape:showpageshadow="0"
     inkscape:pageopacity="0"
     inkscape:pagecheckerboard="0"
     inkscape:deskcolor="#505050"
     inkscape:document-units="mm"
     inkscape:zoom="0.48302077"
     inkscape:cx="514.47063"
     inkscape:cy="473.06455"
     inkscape:window-width="1860"
     inkscape:window-height="978"
     inkscape:window-x="30"
     inkscape:window-y="72"
     inkscape:window-maximized="1"
     inkscape:current-layer="layer1" />
  <defs
     id="defs1">
    <marker
       style="overflow:visible"
       id="marker3"
       refX="0"
       refY="0"
       orient="auto-start-reverse"
       inkscape:stockid="Triangle arrow"
       markerWidth="0.5"
       markerHeight="0.5"
       viewBox="0 0 1 1"
       inkscape:isstock="true"
       inkscape:collect="always"
       preserveAspectRatio="xMidYMid">
      <path
         transform="scale(0.5)"
         style="fill:context-stroke;fill-rule:evenodd;stroke:context-stroke;stroke-width:1pt"
         d="M 5.77,0 -2.88,5 V -5 Z"
         id="path3" />
    </marker>
    <marker
       style="overflow:visible"
       id="Triangle"
       refX="0"
       refY="0"
       orient="auto-start-reverse"
       inkscape:stockid="Triangle arrow"
       markerWidth="0.5"
       markerHeight="0.5"
       viewBox="0 0 1 1"
       inkscape:isstock="true"
       inkscape:collect="always"
       preserveAspectRatio="xMidYMid">
      <path
         transform="scale(0.5)"
         style="fill:context-stroke;fill-rule:evenodd;stroke:context-stroke;stroke-width:1pt"
         d="M 5.77,0 -2.88,5 V -5 Z"
         id="path135" />
    </marker>
    <clipPath
       id="clipPath5534">
      <path
         clip-rule="nonzero"
         d="M 6,1 H 16.164062 V 7 H 6 Z m 0,0"
         id="path2960" />
    </clipPath>
    <clipPath
       id="clipPath3070">
      <path
         clip-rule="nonzero"
         d="M 5,1 H 16.609375 V 7 H 5 Z m 0,0"
         id="path6121" />
    </clipPath>
  </defs>
  <g
     inkscape:label="Layer 1"
     inkscape:groupmode="layer"
     id="layer1"
     transform="translate(6.689779,-70.476469)">
    <path
       style="fill:#bfbfbf;stroke:#bfbfbf;stroke-width:1;stroke-linecap:round;stroke-linejoin:round;stroke-miterlimit:5;stroke-dasharray:none;marker-end:url(#Triangle);paint-order:stroke fill markers"
       d="M 70.240183,152.17052 V 76.695064"
       id="path1" />
    <path
       style="fill:#bfbfbf;stroke:#bfbfbf;stroke-width:1;stroke-linecap:round;stroke-linejoin:round;stroke-miterlimit:5;stroke-dasharray:none;marker-end:url(#marker3);paint-order:stroke fill markers"
       d="M 70.240183,152.17052 H 142.39404"
       id="path2" />
    <path
       style="fill:#bfbfbf;stroke:#bfbfbf;stroke-width:1;stroke-linecap:round;stroke-linejoin:round;stroke-miterlimit:5;stroke-dasharray:none;marker-end:url(#marker3);paint-order:stroke fill markers"
       d="M 70.240183,152.17052 38.580149,185.95959"
       id="path4" />
    <rect
       style="fill:none;stroke:#bfbfbf;stroke-width:2.03748;stroke-linecap:round;stroke-linejoin:round;stroke-miterlimit:5;stroke-dasharray:none;paint-order:stroke fill markers"
       id="rect4"
       width="77.549278"
       height="41.951118"
       x="48.77021"
       y="74.83181"
       transform="matrix(0.95360982,0.30104536,-0.03493201,0.99938969,0,0)" />
    <circle
       id="path5"
       style="fill:#bfbfbf;stroke:none;stroke-width:0.264583"
       cx="55.47311"
       cy="115.06693"
       r="1.5" />
    <circle
       id="path6"
       style="fill:#bfbfbf;stroke:none;stroke-width:0.264583"
       cx="100.63593"
       cy="135.34003"
       r="1.5" />
    <path
       style="fill:none;stroke:#bfbfbf;stroke-width:1;stroke-linecap:round;stroke-linejoin:round;stroke-miterlimit:5;stroke-dasharray:none;paint-order:stroke fill markers"
       d="M -6.1897789,130.59375 172.00459,85.164241"
       id="path7" />
    <path
       style="fill:none;stroke:#bfbfbf;stroke-width:1;stroke-linecap:round;stroke-linejoin:round;stroke-miterlimit:5;stroke-dasharray:none;paint-order:stroke fill markers"
       d="M 147.46527,196.70358 53.806593,70.976475"
       id="path8" />
    <path
       style="fill:none;stroke:#bfbfbf;stroke-width:1;stroke-linecap:round;stroke-linejoin:round;stroke-miterlimit:5;stroke-dasharray:1, 6;stroke-dashoffset:0;paint-order:stroke fill markers"
       d="M 70.240183,152.17052 55.47311,116.56693"
       id="path9" />
    <g
       inkscape:label=""
       transform="translate(92.788102,137.39901)"
       id="g11"
       style="fill:#bfbfbf;fill-opacity:1">
      <g
         fill="#000000"
         fill-opacity="1"
         id="g3"
         transform="matrix(0.352778,0,0,0.352778,-0.948255,-0.701366)"
         style="fill:#bfbfbf;fill-opacity:1">
        <g
           id="use2"
           transform="translate(1.589,19.66)"
           style="fill:#bfbfbf;fill-opacity:1">
          <path
             d="m 13.265625,-14.796875 c -0.3125,0.28125 -1.21875,1.140625 -1.21875,1.484375 0,0.25 0.21875,0.46875 0.46875,0.46875 0.21875,0 0.328125,-0.140625 0.5,-0.390625 0.59375,-0.75 1.265625,-1.21875 1.828125,-1.53125 0.25,-0.15625 0.421875,-0.234375 0.421875,-0.5 0,-0.21875 -0.203125,-0.34375 -0.34375,-0.46875 -0.703125,-0.46875 -0.875,-1.140625 -0.9375,-1.4375 -0.07813,-0.203125 -0.15625,-0.5 -0.5,-0.5 -0.15625,0 -0.453125,0.109375 -0.453125,0.46875 0,0.234375 0.15625,0.828125 0.625,1.484375 H 5.328125 c -0.421875,0 -0.84375,0 -0.84375,0.484375 0,0.4375 0.453125,0.4375 0.84375,0.4375 z m 0,0"
             id="path10"
             style="fill:#bfbfbf;fill-opacity:1" />
        </g>
      </g>
      <g
         fill="#000000"
         fill-opacity="1"
         id="g4"
         transform="matrix(0.352778,0,0,0.352778,-0.948255,-0.701366)"
         style="fill:#bfbfbf;fill-opacity:1">
        <g
           id="use3"
           transform="translate(2.0004661,19.66)"
           style="fill:#bfbfbf;fill-opacity:1">
          <path
             d="m 11.75,-10.109375 c -0.796875,0.140625 -1.09375,0.734375 -1.09375,1.21875 0,0.59375 0.46875,0.78125 0.8125,0.78125 0.75,0 1.265625,-0.640625 1.265625,-1.3125 0,-1.03125 -1.1875,-1.5 -2.234375,-1.5 -1.5,0 -2.34375,1.484375 -2.5625,1.953125 -0.578125,-1.859375 -2.109375,-1.953125 -2.5625,-1.953125 -2.53125,0 -3.859375,3.234375 -3.859375,3.78125 0,0.109375 0.09375,0.234375 0.265625,0.234375 0.203125,0 0.25,-0.15625 0.296875,-0.25 0.84375,-2.75 2.5,-3.28125 3.21875,-3.28125 1.125,0 1.34375,1.046875 1.34375,1.640625 C 6.640625,-8.25 6.5,-7.6875 6.1875,-6.5 l -0.828125,3.40625 c -0.375,1.484375 -1.09375,2.84375 -2.40625,2.84375 -0.125,0 -0.75,0 -1.265625,-0.3125 0.890625,-0.1875 1.09375,-0.921875 1.09375,-1.21875 0,-0.5 -0.375,-0.796875 -0.84375,-0.796875 -0.59375,0 -1.25,0.515625 -1.25,1.3125 0,1.046875 1.171875,1.515625 2.234375,1.515625 1.1875,0 2.03125,-0.9375 2.5625,-1.953125 C 5.875,-0.25 7.109375,0.25 8.03125,0.25 c 2.53125,0 3.859375,-3.25 3.859375,-3.796875 0,-0.125 -0.09375,-0.21875 -0.25,-0.21875 -0.21875,0 -0.234375,0.125 -0.3125,0.328125 -0.671875,2.171875 -2.109375,3.1875 -3.21875,3.1875 -0.875,0 -1.34375,-0.640625 -1.34375,-1.65625 0,-0.546875 0.09375,-0.9375 0.5,-2.578125 L 8.125,-7.859375 C 8.5,-9.34375 9.34375,-10.4375 10.484375,-10.4375 c 0.04687,0 0.734375,0 1.265625,0.328125 z m 0,0"
             id="path11"
             style="fill:#bfbfbf;fill-opacity:1" />
        </g>
      </g>
    </g>
    <g
       inkscape:label=""
       transform="translate(49.998823,117.22704)"
       id="g15"
       style="fill:#bfbfbf;fill-opacity:1">
      <g
         clip-path="url(#clipPath5534)"
         id="g14"
         transform="matrix(0.352778,0,0,0.352778,-0.434807,-0.701366)"
         style="fill:#bfbfbf;fill-opacity:1">
        <g
           fill="#000000"
           fill-opacity="1"
           id="g13"
           style="fill:#bfbfbf;fill-opacity:1">
          <g
             id="g12"
             transform="translate(2.132,19.66)"
             style="fill:#bfbfbf;fill-opacity:1">
            <path
               d="m 13.265625,-14.796875 c -0.3125,0.28125 -1.21875,1.140625 -1.21875,1.484375 0,0.25 0.21875,0.46875 0.46875,0.46875 0.21875,0 0.328125,-0.140625 0.5,-0.390625 0.59375,-0.75 1.265625,-1.21875 1.828125,-1.53125 0.25,-0.15625 0.421875,-0.234375 0.421875,-0.5 0,-0.21875 -0.203125,-0.34375 -0.34375,-0.46875 -0.703125,-0.46875 -0.875,-1.140625 -0.9375,-1.4375 -0.07813,-0.203125 -0.15625,-0.5 -0.5,-0.5 -0.15625,0 -0.453125,0.109375 -0.453125,0.46875 0,0.234375 0.15625,0.828125 0.625,1.484375 H 5.328125 c -0.421875,0 -0.84375,0 -0.84375,0.484375 0,0.4375 0.453125,0.4375 0.84375,0.4375 z m 0,0"
               id="path12"
               style="fill:#bfbfbf;fill-opacity:1" />
          </g>
        </g>
      </g>
      <g
         fill="#000000"
         fill-opacity="1"
         id="g5"
         transform="matrix(0.352778,0,0,0.352778,-0.434807,-0.701366)"
         style="fill:#bfbfbf;fill-opacity:1">
        <g
           id="use4"
           transform="translate(1.99815,19.66)"
           style="fill:#bfbfbf;fill-opacity:1">
          <path
             d="m 1.0625,3.140625 c -0.171875,0.75 -0.265625,0.953125 -1.28125,0.953125 -0.296875,0 -0.546875,0 -0.546875,0.46875 0,0.046875 0.015625,0.25 0.296875,0.25 0.3125,0 0.671875,-0.046875 0.984375,-0.046875 H 1.59375 c 0.515625,0 1.78125,0.046875 2.296875,0.046875 0.15625,0 0.453125,0 0.453125,-0.453125 0,-0.265625 -0.1875,-0.265625 -0.609375,-0.265625 -1.125,0 -1.203125,-0.171875 -1.203125,-0.375 0,-0.296875 1.109375,-4.5625 1.265625,-5.125 0.265625,0.6875 0.9375,1.65625 2.21875,1.65625 2.8125,0 5.828125,-3.640625 5.828125,-7.28125 0,-2.28125 -1.28125,-3.890625 -3.140625,-3.890625 -1.59375,0 -2.921875,1.53125 -3.203125,1.875 -0.203125,-1.234375 -1.15625,-1.875 -2.15625,-1.875 -0.71875,0 -1.28125,0.34375 -1.75,1.28125 -0.453125,0.890625 -0.796875,2.40625 -0.796875,2.5 0,0.109375 0.09375,0.234375 0.265625,0.234375 0.203125,0 0.21875,-0.03125 0.375,-0.609375 0.375,-1.453125 0.84375,-2.921875 1.828125,-2.921875 0.578125,0 0.78125,0.40625 0.78125,1.140625 0,0.59375 -0.078125,0.84375 -0.1875,1.296875 z m 4.296875,-10.875 c 0.171875,-0.6875 0.859375,-1.40625 1.25,-1.75 0.28125,-0.25 1.09375,-0.953125 2.046875,-0.953125 1.078125,0 1.578125,1.09375 1.578125,2.390625 0,1.1875 -0.6875,3.984375 -1.3125,5.265625 C 8.296875,-1.4375 7.15625,-0.25 6.015625,-0.25 4.34375,-0.25 4.0625,-2.375 4.0625,-2.484375 4.0625,-2.546875 4.109375,-2.75 4.140625,-2.875 Z m 0,0"
             id="path14"
             style="fill:#bfbfbf;fill-opacity:1" />
        </g>
      </g>
    </g>
    <g
       inkscape:label=""
       transform="translate(61.285138,102.26934)"
       id="g20"
       style="fill:#bfbfbf;fill-opacity:1">
      <g
         fill="#000000"
         fill-opacity="1"
         id="g17"
         transform="matrix(0.352778,0,0,0.352778,-0.937526,-0.701366)"
         style="fill:#bfbfbf;fill-opacity:1">
        <g
           id="g16"
           transform="translate(1.599,19.66)"
           style="fill:#bfbfbf;fill-opacity:1">
          <path
             d="m 13.265625,-14.796875 c -0.3125,0.28125 -1.21875,1.140625 -1.21875,1.484375 0,0.25 0.21875,0.46875 0.46875,0.46875 0.21875,0 0.328125,-0.140625 0.5,-0.390625 0.59375,-0.75 1.265625,-1.21875 1.828125,-1.53125 0.25,-0.15625 0.421875,-0.234375 0.421875,-0.5 0,-0.21875 -0.203125,-0.34375 -0.34375,-0.46875 -0.703125,-0.46875 -0.875,-1.140625 -0.9375,-1.4375 -0.07813,-0.203125 -0.15625,-0.5 -0.5,-0.5 -0.15625,0 -0.453125,0.109375 -0.453125,0.46875 0,0.234375 0.15625,0.828125 0.625,1.484375 H 5.328125 c -0.421875,0 -0.84375,0 -0.84375,0.484375 0,0.4375 0.453125,0.4375 0.84375,0.4375 z m 0,0"
             id="path15"
             style="fill:#bfbfbf;fill-opacity:1" />
        </g>
      </g>
      <g
         fill="#000000"
         fill-opacity="1"
         id="g19"
         transform="matrix(0.352778,0,0,0.352778,-0.937526,-0.701366)"
         style="fill:#bfbfbf;fill-opacity:1">
        <g
           id="g18"
           transform="translate(1.985679,19.66)"
           style="fill:#bfbfbf;fill-opacity:1">
          <path
             d="M 8.453125,-1.4375 C 8.765625,-0.046875 9.96875,0.25 10.5625,0.25 c 0.78125,0 1.375,-0.515625 1.78125,-1.359375 0.421875,-0.890625 0.734375,-2.359375 0.734375,-2.4375 0,-0.125 -0.09375,-0.21875 -0.234375,-0.21875 -0.234375,0 -0.25,0.125 -0.359375,0.5 -0.4375,1.703125 -0.890625,3.015625 -1.875,3.015625 -0.75,0 -0.75,-0.8125 -0.75,-1.140625 0,-0.5625 0.078125,-0.8125 0.328125,-1.859375 0.171875,-0.671875 0.34375,-1.328125 0.5,-2.03125 l 1.015625,-4.03125 c 0.171875,-0.625 0.171875,-0.671875 0.171875,-0.75 0,-0.375 -0.296875,-0.625 -0.671875,-0.625 -0.71875,0 -0.890625,0.625 -1.046875,1.25 -0.25,0.96875 -1.578125,6.296875 -1.75,7.15625 -0.03125,0 -1,2.03125 -2.8125,2.03125 -1.28125,0 -1.53125,-1.109375 -1.53125,-2.03125 0,-1.40625 0.703125,-3.390625 1.34375,-5.046875 0.296875,-0.796875 0.421875,-1.125 0.421875,-1.625 0,-1.0625 -0.765625,-1.96875 -1.96875,-1.96875 -2.265625,0 -3.1875,3.59375 -3.1875,3.78125 0,0.109375 0.09375,0.234375 0.265625,0.234375 0.234375,0 0.25,-0.109375 0.34375,-0.453125 0.609375,-2.125 1.5625,-3.078125 2.515625,-3.078125 0.25,0 0.640625,0.03125 0.640625,0.828125 0,0.640625 -0.28125,1.359375 -0.640625,2.296875 -1.09375,2.953125 -1.21875,3.890625 -1.21875,4.640625 C 2.578125,-0.15625 4.484375,0.25 5.5,0.25 c 1.59375,0 2.453125,-1.09375 2.953125,-1.6875 z m 0,0"
             id="path17"
             style="fill:#bfbfbf;fill-opacity:1" />
        </g>
      </g>
    </g>
    <g
       inkscape:label=""
       transform="translate(82.294096,120.0322)"
       id="g26"
       style="fill:#bfbfbf;fill-opacity:1">
      <g
         clip-path="url(#clipPath3070)"
         id="g23"
         transform="matrix(0.352778,0,0,0.352778,-0.937487,-0.701366)"
         style="fill:#bfbfbf;fill-opacity:1">
        <g
           fill="#000000"
           fill-opacity="1"
           id="g22"
           style="fill:#bfbfbf;fill-opacity:1">
          <g
             id="g21"
             transform="translate(1.0039999,19.66)"
             style="fill:#bfbfbf;fill-opacity:1">
            <path
               d="m 13.265625,-14.796875 c -0.3125,0.28125 -1.21875,1.140625 -1.21875,1.484375 0,0.25 0.21875,0.46875 0.46875,0.46875 0.21875,0 0.328125,-0.140625 0.5,-0.390625 0.59375,-0.75 1.265625,-1.21875 1.828125,-1.53125 0.25,-0.15625 0.421875,-0.234375 0.421875,-0.5 0,-0.21875 -0.203125,-0.34375 -0.34375,-0.46875 -0.703125,-0.46875 -0.875,-1.140625 -0.9375,-1.4375 -0.07813,-0.203125 -0.15625,-0.5 -0.5,-0.5 -0.15625,0 -0.453125,0.109375 -0.453125,0.46875 0,0.234375 0.15625,0.828125 0.625,1.484375 H 5.328125 c -0.421875,0 -0.84375,0 -0.84375,0.484375 0,0.4375 0.453125,0.4375 0.84375,0.4375 z m 0,0"
               id="path20"
               style="fill:#bfbfbf;fill-opacity:1" />
          </g>
        </g>
      </g>
      <g
         fill="#000000"
         fill-opacity="1"
         id="g25"
         transform="matrix(0.352778,0,0,0.352778,-0.937487,-0.701366)"
         style="fill:#bfbfbf;fill-opacity:1">
        <g
           id="g24"
           transform="translate(1.985569,19.66)"
           style="fill:#bfbfbf;fill-opacity:1">
          <path
             d="m 11.328125,-9.265625 c 0,-1.5625 -0.796875,-1.65625 -1,-1.65625 -0.59375,0 -1.140625,0.59375 -1.140625,1.078125 0,0.296875 0.1875,0.46875 0.28125,0.578125 0.25,0.21875 0.890625,0.890625 0.890625,2.171875 0,1.046875 -1.484375,6.84375 -4.46875,6.84375 -1.5,0 -1.796875,-1.265625 -1.796875,-2.171875 0,-1.25 0.5625,-2.984375 1.234375,-4.765625 0.390625,-1.015625 0.5,-1.265625 0.5,-1.765625 0,-1.03125 -0.75,-1.96875 -1.96875,-1.96875 -2.265625,0 -3.1875,3.59375 -3.1875,3.78125 0,0.109375 0.09375,0.234375 0.265625,0.234375 0.234375,0 0.25,-0.109375 0.34375,-0.453125 0.609375,-2.125 1.5625,-3.078125 2.515625,-3.078125 0.21875,0 0.640625,0 0.640625,0.828125 0,0.640625 -0.28125,1.359375 -0.640625,2.296875 -1.1875,3.171875 -1.1875,3.9375 -1.1875,4.53125 0,0.546875 0.0625,1.5625 0.828125,2.265625 C 4.34375,0.25 5.578125,0.25 5.796875,0.25 c 4.109375,0 5.53125,-8.109375 5.53125,-9.515625 z m 0,0"
             id="path23"
             style="fill:#bfbfbf;fill-opacity:1" />
        </g>
      </g>
    </g>
    <path
       style="fill:none;stroke:#bfbfbf;stroke-width:2;stroke-linecap:round;stroke-linejoin:round;stroke-miterlimit:5;stroke-dasharray:none;stroke-dashoffset:0;marker-end:url(#marker3);paint-order:stroke fill markers"
       d="M 56.973109,115.06693 125.87415,96.924899"
       id="path26" />
    <path
       style="fill:none;stroke:#bfbfbf;stroke-width:2;stroke-linecap:round;stroke-linejoin:round;stroke-miterlimit:5;stroke-dasharray:none;stroke-dashoffset:0;marker-end:url(#marker3);paint-order:stroke fill markers"
       d="m 82.331444,107.30304 14.193773,19.8708"
       id="path27" />
  </g>
</svg>
